# Made using Asset Forge (www.assetforge.io) version 1.3 

mtllib TinyBrick.mtl 

g brick_flat1by1_9

v -0.09375 0.3565218 2.25
v -0.09375 0.25 2.25
v -0.09907409 0.3565218 2.290441
v -0.09907409 0.25 2.290441
v -0.09907409 0.25 2.209559
v -0.09907409 0.3565218 2.209559
v -0.1146835 0.3565218 2.328125
v -0.1146835 0.25 2.328125
v -0.1395146 0.3565218 2.360486
v -0.1395146 0.25 2.360486
v -0.171875 0.25 2.385316
v -0.171875 0.3565218 2.385316
v -0.2095595 0.25 2.400926
v -0.2095595 0.3565218 2.400926
v -0.1146835 0.25 2.171875
v -0.1146835 0.3565218 2.171875
v -0.1395146 0.25 2.139514
v -0.1395146 0.3565218 2.139514
v -0.171875 0.3565218 2.114684
v -0.171875 0.25 2.114684
v -0.2095595 0.3565218 2.099074
v -0.2095595 0.25 2.099074
v -0.25 0.3565218 2.09375
v -0.25 0.25 2.09375
v -0.2904405 0.3565218 2.099074
v -0.2904405 0.25 2.099074
v -0.328125 0.3565218 2.114684
v -0.328125 0.25 2.114684
v -0.25 0.25 2.40625
v -0.25 0.3565218 2.40625
v -0.2904405 0.25 2.400926
v -0.2904405 0.3565218 2.400926
v -0.328125 0.25 2.385316
v -0.328125 0.3565218 2.385316
v -0.3604854 0.25 2.360486
v -0.3604854 0.3565218 2.360486
v -0.3853165 0.3565218 2.328125
v -0.3853165 0.25 2.328125
v -0.4009259 0.3565218 2.290441
v -0.4009259 0.25 2.290441
v -0.40625 0.3565218 2.25
v -0.40625 0.25 2.25
v -0.4009259 0.3565218 2.209559
v -0.4009259 0.25 2.209559
v -0.3853165 0.3565218 2.171875
v -0.3853165 0.25 2.171875
v -0.3604854 0.3565218 2.139514
v -0.3604854 0.25 2.139514
v -0.5 -4.511946E-17 2
v -0.5 0.25 2
v -0.5 0 2.5
v -0.5 0.25 2.5
v 0 -4.511946E-17 2.5
v 0 0.25 2.5
v 0 -4.511946E-17 2
v 0 0.25 2
vn 0.9990385 0 -0.04384195
vn 0.9990385 0 0.04384195
vn 0.9763442 0 0.216222
vn 0.9536499 0 0.3009183
vn 0.9763442 0 -0.216222
vn 0.9536499 0 -0.3009183
vn 0.8871137 0 0.4615511
vn 0.8432716 0 0.5374876
vn 0.7071068 0 0.7071068
vn 0.7071068 0 0.7071068
vn 0.5374876 0 0.8432716
vn 0.4615511 0 0.8871137
vn 0.3009183 0 0.9536499
vn 0.2162222 0 0.9763442
vn 0.8871137 0 -0.4615511
vn 0.8432716 0 -0.5374876
vn 0.7071068 0 -0.7071068
vn 0.7071068 0 -0.7071068
vn 0.5374876 0 -0.8432716
vn 0.4615511 0 -0.8871137
vn 0.3009183 0 -0.9536499
vn 0.2162221 0 -0.9763442
vn 0.04384195 0 -0.9990385
vn -0.04384195 0 -0.9990385
vn -0.2162221 0 -0.9763442
vn -0.3009183 0 -0.9536499
vn -0.4615511 0 -0.8871137
vn -0.5374876 0 -0.8432716
vn 0.043842 0 0.9990385
vn -0.043842 0 0.9990385
vn -0.2162222 0 0.9763442
vn -0.3009183 0 0.9536499
vn -0.4615511 0 0.8871137
vn -0.5374876 0 0.8432716
vn -0.7071068 0 0.7071068
vn -0.7071068 0 0.7071068
vn -0.8432716 0 0.5374876
vn -0.8871137 0 0.4615511
vn -0.9536499 0 0.3009183
vn -0.9763442 0 0.2162222
vn -0.9990385 0 0.043842
vn -0.9990385 0 -0.043842
vn -0.9763442 0 -0.2162222
vn -0.9536499 0 -0.3009183
vn -0.8871137 0 -0.4615511
vn -0.8432716 0 -0.5374876
vn -0.7071068 0 -0.7071068
vn -0.7071068 0 -0.7071068
vn -1 0 0
vn 0 0 1
vn 0 -1 0
vn 0 1 0
vn 0 0 -1
vn 1 0 0
vt -2.25 0.3565218
vt -2.25 0.25
vt -2.290441 0.3565218
vt -2.290441 0.25
vt -2.209559 0.25
vt -2.209559 0.3565218
vt -2.328125 0.3565218
vt -2.328125 0.25
vt -2.360486 0.3565218
vt -2.360486 0.25
vt -0.1395146 0.25
vt -0.171875 0.25
vt -0.1395146 0.3565218
vt -0.171875 0.3565218
vt -0.2095595 0.25
vt -0.2095595 0.3565218
vt -2.171875 0.25
vt -2.171875 0.3565218
vt -2.139514 0.25
vt -2.139514 0.3565218
vt 0.1395146 0.3565218
vt 0.171875 0.3565218
vt 0.1395146 0.25
vt 0.171875 0.25
vt 0.2095595 0.3565218
vt 0.2095595 0.25
vt 0.25 0.3565218
vt 0.25 0.25
vt 0.2904405 0.3565218
vt 0.2904405 0.25
vt 0.328125 0.3565218
vt 0.328125 0.25
vt -0.25 0.25
vt -0.25 0.3565218
vt -0.2904405 0.25
vt -0.2904405 0.3565218
vt -0.328125 0.25
vt -0.328125 0.3565218
vt -0.3604854 0.25
vt -0.3604854 0.3565218
vt 2.360486 0.3565218
vt 2.360486 0.25
vt 2.328125 0.3565218
vt 2.328125 0.25
vt 2.290441 0.3565218
vt 2.290441 0.25
vt 2.25 0.3565218
vt 2.25 0.25
vt 2.209559 0.3565218
vt 2.209559 0.25
vt 2.171875 0.3565218
vt 2.171875 0.25
vt 2.139514 0.3565218
vt 2.139514 0.25
vt 0.3604854 0.25
vt 0.3604854 0.3565218
vt 2 -4.511946E-17
vt 2 0.25
vt 2.5 0
vt 2.5 0.25
vt 0 -4.511946E-17
vt -0.5 0
vt 0 0.25
vt -0.5 0.25
vt 0 -2.5
vt 0 -2
vt 0.5 -2.5
vt 0.5 -2
vt 0 2.5
vt 0.09907409 2.209559
vt 0 2
vt 0.1146835 2.171875
vt 0.1395146 2.139514
vt 0.171875 2.114684
vt 0.2095595 2.099074
vt 0.5 2
vt 0.09375 2.25
vt 0.25 2.09375
vt 0.2904405 2.099074
vt 0.328125 2.114684
vt 0.3604854 2.139514
vt 0.3853165 2.171875
vt 0.4009259 2.209559
vt 0.40625 2.25
vt 0.09907409 2.290441
vt 0.5 2.5
vt 0.4009259 2.290441
vt 0.3853165 2.328125
vt 0.3604854 2.360486
vt 0.328125 2.385316
vt 0.2904405 2.400926
vt 0.25 2.40625
vt 0.2095595 2.400926
vt 0.171875 2.385316
vt 0.1395146 2.360486
vt 0.1146835 2.328125
vt 0.5 -4.511946E-17
vt 0.5 0.25
vt -2 -4.511946E-17
vt -2.5 -4.511946E-17
vt -2 0.25
vt -2.5 0.25

usemtl _defaultMat (Instance) (Instance)
usemap _defaultMat (Instance) (Instance)
f 3/3/3 2/2/2 1/1/1
f 2/2/2 3/3/3 4/4/4
f 5/5/5 1/1/1 2/2/2
f 1/1/1 5/5/5 6/6/6
f 7/7/7 4/4/4 3/3/3
f 4/4/4 7/7/7 8/8/8
f 9/9/9 8/8/8 7/7/7
f 8/8/8 9/9/9 10/10/10
f 9/13/9 11/12/11 10/11/10
f 11/12/11 9/13/9 12/14/12
f 12/14/12 13/15/13 11/12/11
f 13/15/13 12/14/12 14/16/14
f 15/17/15 6/6/6 5/5/5
f 6/6/6 15/17/15 16/18/16
f 17/19/17 16/18/16 15/17/15
f 16/18/16 17/19/17 18/20/18
f 17/23/17 19/22/19 18/21/18
f 19/22/19 17/23/17 20/24/20
f 20/24/20 21/25/21 19/22/19
f 21/25/21 20/24/20 22/26/22
f 22/26/22 23/27/23 21/25/21
f 23/27/23 22/26/22 24/28/24
f 24/28/24 25/29/25 23/27/23
f 25/29/25 24/28/24 26/30/26
f 26/30/26 27/31/27 25/29/25
f 27/31/27 26/30/26 28/32/28
f 14/16/14 29/33/29 13/15/13
f 29/33/29 14/16/14 30/34/30
f 30/34/30 31/35/31 29/33/29
f 31/35/31 30/34/30 32/36/32
f 32/36/32 33/37/33 31/35/31
f 33/37/33 32/36/32 34/38/34
f 34/38/34 35/39/35 33/37/33
f 35/39/35 34/38/34 36/40/36
f 37/43/37 35/42/35 36/41/36
f 35/42/35 37/43/37 38/44/38
f 39/45/39 38/44/38 37/43/37
f 38/44/38 39/45/39 40/46/40
f 41/47/41 40/46/40 39/45/39
f 40/46/40 41/47/41 42/48/42
f 43/49/43 42/48/42 41/47/41
f 42/48/42 43/49/43 44/50/44
f 45/51/45 44/50/44 43/49/43
f 44/50/44 45/51/45 46/52/46
f 47/53/47 46/52/46 45/51/45
f 46/52/46 47/53/47 48/54/48
f 47/56/47 28/32/28 48/55/48
f 28/32/28 47/56/47 27/31/27
f 51/59/49 50/58/49 49/57/49
f 50/58/49 51/59/49 52/60/49
f 54/63/50 51/62/50 53/61/50
f 51/62/50 54/63/50 52/64/50
f 51/67/51 55/66/51 53/65/51
f 55/66/51 51/67/51 49/68/51
f 56/71/52 5/70/52 54/69/52
f 5/70/52 56/71/52 15/72/52
f 15/72/52 56/71/52 17/73/52
f 17/73/52 56/71/52 20/74/52
f 20/74/52 56/71/52 22/75/52
f 22/75/52 56/71/52 50/76/52
f 54/69/52 5/70/52 2/77/52
f 22/75/52 50/76/52 24/78/52
f 24/78/52 50/76/52 26/79/52
f 26/79/52 50/76/52 28/80/52
f 28/80/52 50/76/52 48/81/52
f 48/81/52 50/76/52 46/82/52
f 46/82/52 50/76/52 44/83/52
f 44/83/52 50/76/52 42/84/52
f 4/85/52 54/69/52 2/77/52
f 52/86/52 42/84/52 50/76/52
f 52/86/52 40/87/52 42/84/52
f 52/86/52 38/88/52 40/87/52
f 52/86/52 35/89/52 38/88/52
f 52/86/52 33/90/52 35/89/52
f 52/86/52 31/91/52 33/90/52
f 52/86/52 29/92/52 31/91/52
f 52/86/52 13/93/52 29/92/52
f 54/69/52 13/93/52 52/86/52
f 13/93/52 54/69/52 11/94/52
f 11/94/52 54/69/52 10/95/52
f 10/95/52 54/69/52 8/96/52
f 8/96/52 54/69/52 4/85/52
f 6/70/52 3/85/52 1/77/52
f 3/85/52 6/70/52 16/72/52
f 3/85/52 16/72/52 7/96/52
f 7/96/52 16/72/52 18/73/52
f 7/96/52 18/73/52 9/95/52
f 9/95/52 18/73/52 19/74/52
f 9/95/52 19/74/52 12/94/52
f 12/94/52 19/74/52 21/75/52
f 12/94/52 21/75/52 14/93/52
f 14/93/52 21/75/52 23/78/52
f 14/93/52 23/78/52 30/92/52
f 30/92/52 23/78/52 25/79/52
f 30/92/52 25/79/52 32/91/52
f 32/91/52 25/79/52 27/80/52
f 32/91/52 27/80/52 34/90/52
f 34/90/52 27/80/52 47/81/52
f 34/90/52 47/81/52 36/89/52
f 36/89/52 47/81/52 45/82/52
f 36/89/52 45/82/52 37/88/52
f 37/88/52 45/82/52 43/83/52
f 37/88/52 43/83/52 39/87/52
f 39/87/52 43/83/52 41/84/52
f 50/98/53 55/61/53 49/97/53
f 55/61/53 50/98/53 56/63/53
f 56/101/54 53/100/54 55/99/54
f 53/100/54 56/101/54 54/102/54
g brick_flat1by1_10


usemtl _defaultMat (Instance) (Instance) (Instance)
usemap _defaultMat (Instance) (Instance) (Instance)
f 3/3/3 2/2/2 1/1/1
f 2/2/2 3/3/3 4/4/4
f 5/5/5 1/1/1 2/2/2
f 1/1/1 5/5/5 6/6/6
f 7/7/7 4/4/4 3/3/3
f 4/4/4 7/7/7 8/8/8
f 9/9/9 8/8/8 7/7/7
f 8/8/8 9/9/9 10/10/10
f 9/13/9 11/12/11 10/11/10
f 11/12/11 9/13/9 12/14/12
f 12/14/12 13/15/13 11/12/11
f 13/15/13 12/14/12 14/16/14
f 15/17/15 6/6/6 5/5/5
f 6/6/6 15/17/15 16/18/16
f 17/19/17 16/18/16 15/17/15
f 16/18/16 17/19/17 18/20/18
f 17/23/17 19/22/19 18/21/18
f 19/22/19 17/23/17 20/24/20
f 20/24/20 21/25/21 19/22/19
f 21/25/21 20/24/20 22/26/22
f 22/26/22 23/27/23 21/25/21
f 23/27/23 22/26/22 24/28/24
f 24/28/24 25/29/25 23/27/23
f 25/29/25 24/28/24 26/30/26
f 26/30/26 27/31/27 25/29/25
f 27/31/27 26/30/26 28/32/28
f 14/16/14 29/33/29 13/15/13
f 29/33/29 14/16/14 30/34/30
f 30/34/30 31/35/31 29/33/29
f 31/35/31 30/34/30 32/36/32
f 32/36/32 33/37/33 31/35/31
f 33/37/33 32/36/32 34/38/34
f 34/38/34 35/39/35 33/37/33
f 35/39/35 34/38/34 36/40/36
f 37/43/37 35/42/35 36/41/36
f 35/42/35 37/43/37 38/44/38
f 39/45/39 38/44/38 37/43/37
f 38/44/38 39/45/39 40/46/40
f 41/47/41 40/46/40 39/45/39
f 40/46/40 41/47/41 42/48/42
f 43/49/43 42/48/42 41/47/41
f 42/48/42 43/49/43 44/50/44
f 45/51/45 44/50/44 43/49/43
f 44/50/44 45/51/45 46/52/46
f 47/53/47 46/52/46 45/51/45
f 46/52/46 47/53/47 48/54/48
f 47/56/47 28/32/28 48/55/48
f 28/32/28 47/56/47 27/31/27
f 51/59/49 50/58/49 49/57/49
f 50/58/49 51/59/49 52/60/49
f 54/63/50 51/62/50 53/61/50
f 51/62/50 54/63/50 52/64/50
f 51/67/51 55/66/51 53/65/51
f 55/66/51 51/67/51 49/68/51
f 56/71/52 5/70/52 54/69/52
f 5/70/52 56/71/52 15/72/52
f 15/72/52 56/71/52 17/73/52
f 17/73/52 56/71/52 20/74/52
f 20/74/52 56/71/52 22/75/52
f 22/75/52 56/71/52 50/76/52
f 54/69/52 5/70/52 2/77/52
f 22/75/52 50/76/52 24/78/52
f 24/78/52 50/76/52 26/79/52
f 26/79/52 50/76/52 28/80/52
f 28/80/52 50/76/52 48/81/52
f 48/81/52 50/76/52 46/82/52
f 46/82/52 50/76/52 44/83/52
f 44/83/52 50/76/52 42/84/52
f 4/85/52 54/69/52 2/77/52
f 52/86/52 42/84/52 50/76/52
f 52/86/52 40/87/52 42/84/52
f 52/86/52 38/88/52 40/87/52
f 52/86/52 35/89/52 38/88/52
f 52/86/52 33/90/52 35/89/52
f 52/86/52 31/91/52 33/90/52
f 52/86/52 29/92/52 31/91/52
f 52/86/52 13/93/52 29/92/52
f 54/69/52 13/93/52 52/86/52
f 13/93/52 54/69/52 11/94/52
f 11/94/52 54/69/52 10/95/52
f 10/95/52 54/69/52 8/96/52
f 8/96/52 54/69/52 4/85/52
f 6/70/52 3/85/52 1/77/52
f 3/85/52 6/70/52 16/72/52
f 3/85/52 16/72/52 7/96/52
f 7/96/52 16/72/52 18/73/52
f 7/96/52 18/73/52 9/95/52
f 9/95/52 18/73/52 19/74/52
f 9/95/52 19/74/52 12/94/52
f 12/94/52 19/74/52 21/75/52
f 12/94/52 21/75/52 14/93/52
f 14/93/52 21/75/52 23/78/52
f 14/93/52 23/78/52 30/92/52
f 30/92/52 23/78/52 25/79/52
f 30/92/52 25/79/52 32/91/52
f 32/91/52 25/79/52 27/80/52
f 32/91/52 27/80/52 34/90/52
f 34/90/52 27/80/52 47/81/52
f 34/90/52 47/81/52 36/89/52
f 36/89/52 47/81/52 45/82/52
f 36/89/52 45/82/52 37/88/52
f 37/88/52 45/82/52 43/83/52
f 37/88/52 43/83/52 39/87/52
f 39/87/52 43/83/52 41/84/52
f 50/98/53 55/61/53 49/97/53
f 55/61/53 50/98/53 56/63/53
f 56/101/54 53/100/54 55/99/54
f 53/100/54 56/101/54 54/102/54
